<svg width="57" height="57" viewBox="0 0 57 57" fill="none" xmlns="http://www.w3.org/2000/svg">
<rect x="0.572266" y="0.732422" width="55.4999" height="55.4999" rx="27.75" fill="#E7F2FF"/>
<path d="M20.9021 35.9031C23.3921 38.2746 26.3564 37.326 27.5421 36.3656C28.1556 35.8686 28.4314 35.5474 28.6685 35.3103C29.4985 34.5395 29.4452 33.7689 28.9056 33.1523C28.6898 32.9055 27.305 31.5753 25.977 30.2117C25.2892 29.5239 24.815 29.0379 24.4094 28.6466C23.8664 28.1053 23.3921 27.4846 22.6807 27.5023C22.0285 27.5023 21.5542 28.0774 20.9614 28.6703C20.2794 29.3523 19.7757 30.2117 19.5978 30.9825C19.0643 33.2353 19.8943 34.8359 20.9021 35.9031ZM20.9021 35.9031L18.4121 38.3931" stroke="#1140E7" stroke-width="1.48661" stroke-linecap="round"/>
<path d="M35.7428 21.0634C33.2521 18.6909 30.2981 19.6573 29.1121 20.6182C28.4984 21.1154 28.2226 21.4367 27.9853 21.674C27.1551 22.4451 27.2085 23.2162 27.7481 23.833C27.8257 23.9218 28.0546 24.1507 28.3775 24.4708M35.7428 21.0634C36.751 22.1311 37.5922 23.75 37.0585 26.0039C36.8806 26.775 36.3768 27.6348 35.6945 28.3172C35.1016 28.9103 34.6272 29.4856 33.9748 29.4856C33.2632 29.5035 32.8939 28.9888 32.3507 28.4473M35.7428 21.0634L38.2336 18.5723M28.3775 24.4708C28.9528 25.0412 29.8269 25.9012 30.6776 26.775C31.3655 27.4632 31.945 28.0558 32.3507 28.4473M28.3775 24.4708L26.8477 26.0102M32.3507 28.4473L30.803 29.9582" stroke="#1140E7" stroke-width="1.48661" stroke-linecap="round"/>
</svg>
