<svg width="57" height="57" viewBox="0 0 57 57" fill="none" xmlns="http://www.w3.org/2000/svg">
<rect x="0.597656" y="0.761719" width="55.4999" height="55.4999" rx="27.75" fill="#E7F2FF"/>
<path d="M28.3484 25.5379C27.2536 25.5379 26.3662 26.2035 26.3662 27.0246C26.3662 27.8456 27.2536 28.5112 28.3484 28.5112C29.4431 28.5112 30.3305 29.1768 30.3305 29.9978C30.3305 30.8188 29.4431 31.4844 28.3484 31.4844M28.3484 25.5379C29.2114 25.5379 29.9456 25.9516 30.2177 26.529M28.3484 25.5379V24.5469M28.3484 31.4844C27.4853 31.4844 26.7511 31.0707 26.479 30.4933M28.3484 31.4844V32.4754" stroke="#1140E7" stroke-width="1.48661" stroke-linecap="round"/>
<path d="M37.268 27.7029V24.8258C37.268 23.2004 37.268 22.3877 36.8675 21.8575C36.467 21.3273 35.5614 21.0699 33.7504 20.5551C32.513 20.2033 31.4222 19.7796 30.5508 19.3927C29.3626 18.8653 28.7686 18.6016 28.3483 18.6016C27.9281 18.6016 27.3341 18.8653 26.1459 19.3927C25.2744 19.7796 24.1837 20.2033 22.9463 20.5551C21.1353 21.0699 20.2297 21.3273 19.8292 21.8575C19.4287 22.3877 19.4287 23.2004 19.4287 24.8258V27.7029C19.4287 33.2778 24.4463 36.6227 26.9549 37.9467C27.5566 38.2642 27.8574 38.423 28.3483 38.423C28.8393 38.423 29.1401 38.2642 29.7418 37.9467C32.2504 36.6227 37.268 33.2778 37.268 27.7029Z" stroke="#1140E7" stroke-width="1.48661" stroke-linecap="round"/>
</svg>
