<svg width="57" height="57" viewBox="0 0 57 57" fill="none" xmlns="http://www.w3.org/2000/svg">
<rect x="0.597656" y="0.841797" width="55.4999" height="55.4999" rx="27.75" fill="#E7F2FF"/>
<path d="M30.0604 20.1129L31.8045 23.6299C32.0423 24.1195 32.6765 24.5891 33.2117 24.679L36.3728 25.2086C38.3944 25.5483 38.8701 27.027 37.4133 28.4858L34.9558 30.9637C34.5395 31.3833 34.3117 32.1926 34.4404 32.7722L35.1441 35.8395C35.699 38.2675 34.4206 39.2067 32.2901 37.9377L29.3271 36.1693C28.792 35.8496 27.91 35.8496 27.365 36.1693L24.402 37.9377C22.2814 39.2067 20.9931 38.2575 21.5481 35.8395L22.2516 32.7722C22.3805 32.1926 22.1525 31.3833 21.7363 30.9637L19.2788 28.4858C17.832 27.027 18.2977 25.5483 20.3193 25.2086L23.4804 24.679C24.0056 24.5891 24.6399 24.1195 24.8777 23.6299L26.6218 20.1129C27.5731 18.2045 29.119 18.2045 30.0604 20.1129Z" stroke="#1140E7" stroke-width="1.48661" stroke-linecap="round" stroke-linejoin="round"/>
</svg>
