<svg width="36" height="36" viewBox="0 0 36 36" fill="none" xmlns="http://www.w3.org/2000/svg">
<path d="M33 18C33 9.71573 26.2842 3 18 3C9.71573 3 3 9.71573 3 18C3 26.2842 9.71573 33 18 33C26.2842 33 33 26.2842 33 18Z" stroke="#1140E7" stroke-width="2.25"/>
<path d="M18.6021 12.4469L22.982 10.987C24.3113 10.5439 24.9761 10.3223 25.3269 10.6732C25.6778 11.024 25.4562 11.6887 25.013 13.0181L23.553 17.3979C22.7979 19.6632 22.4204 20.7959 21.6081 21.6081C20.7959 22.4204 19.6632 22.7979 17.3979 23.553L13.0181 25.013C11.6887 25.4562 11.024 25.6778 10.6732 25.3269C10.3223 24.9761 10.5439 24.3113 10.987 22.982L12.4469 18.6021C13.202 16.3368 13.5796 15.2042 14.3919 14.3919C15.2042 13.5796 16.3368 13.202 18.6021 12.4469Z" stroke="#1140E7" stroke-width="2.25" stroke-linecap="round" stroke-linejoin="round"/>
<path d="M18.0029 18L17.9922 18.0107" stroke="#1140E7" stroke-width="3" stroke-linecap="round" stroke-linejoin="round"/>
</svg>
