<svg width="24" height="22" viewBox="0 0 24 22" fill="none" xmlns="http://www.w3.org/2000/svg">
<path d="M11.2479 21.0274H9.77329C6.00262 21.0274 4.11781 21.0274 2.94611 19.8336C1.77441 18.6398 1.77441 16.7182 1.77441 12.876C1.77441 9.0338 1.77441 7.11218 2.94611 5.91839C4.11781 4.72461 6.00262 4.72461 9.77329 4.72461H13.7733C17.5439 4.72461 19.4298 4.72461 20.6015 5.91839C21.5029 6.83661 21.7101 8.18606 21.7585 10.5095V12.0872" stroke="#616161" stroke-width="1.57769" stroke-linecap="round" stroke-linejoin="round"/>
<path d="M19.6547 17.8716H16.4993M16.4993 21.027C15.6625 21.027 14.8599 20.6946 14.2681 20.1028C13.6764 19.5111 13.344 18.7085 13.344 17.8716C13.344 17.0348 13.6764 16.2322 14.2681 15.6405C14.8599 15.0487 15.6625 14.7163 16.4993 14.7163M19.6547 21.027C20.4916 21.027 21.2942 20.6946 21.8859 20.1028C22.4776 19.5111 22.8101 18.7085 22.8101 17.8716C22.8101 17.0348 22.4776 16.2322 21.8859 15.6405C21.2942 15.0487 20.4916 14.7163 19.6547 14.7163M16.4993 4.72424L16.3942 4.39819C15.8735 2.77843 15.6137 1.96855 14.9942 1.50576C14.3737 1.04297 13.5512 1.04297 11.9041 1.04297H11.6274C9.98138 1.04297 9.15782 1.04297 8.53832 1.50576C7.91776 1.96855 7.65797 2.77843 7.13733 4.39819L7.0332 4.72424" stroke="#616161" stroke-width="1.57769" stroke-linecap="round" stroke-linejoin="round"/>
</svg>
