<svg width="8" height="8" viewBox="0 0 8 8" fill="none" xmlns="http://www.w3.org/2000/svg">
<path d="M4.66406 0.733672C4.44866 0.689946 4.2257 0.666992 3.9974 0.666992C2.15645 0.666992 0.664062 2.15938 0.664062 4.00033C0.664062 5.84126 2.15645 7.33366 3.9974 7.33366C5.83833 7.33366 7.33073 5.84126 7.33073 4.00033C7.33073 3.77203 7.30776 3.54906 7.26406 3.33366" stroke="#1140E7" stroke-width="0.5" stroke-linecap="round"/>
<path d="M4.0026 3.00033C3.6344 3.00033 3.33594 3.22418 3.33594 3.50033C3.33594 3.77646 3.6344 4.00033 4.0026 4.00033C4.3708 4.00033 4.66927 4.22419 4.66927 4.50033C4.66927 4.77646 4.3708 5.00033 4.0026 5.00033M4.0026 3.00033C4.29287 3.00033 4.5398 3.13946 4.63134 3.33366M4.0026 3.00033V2.66699M4.0026 5.00033C3.71234 5.00033 3.4654 4.86119 3.37387 4.66699M4.0026 5.00033V5.33366" stroke="#1140E7" stroke-width="0.5" stroke-linecap="round"/>
<path d="M5.66406 2.33464L7.05603 0.941902M7.33073 2.16072L7.29133 1.13022C7.29133 0.887339 7.14633 0.736009 6.88216 0.716922L5.8408 0.667969" stroke="#1140E7" stroke-width="0.5" stroke-linecap="round" stroke-linejoin="round"/>
</svg>
