<svg width="36" height="36" viewBox="0 0 36 36" fill="none" xmlns="http://www.w3.org/2000/svg">
<path d="M17.7019 9.73424L19.9303 7.50589C22.4394 4.99681 25.7242 3.95606 29.2006 3.78599C30.5529 3.71984 31.2289 3.68677 31.771 4.22893C32.3133 4.77107 32.2801 5.44715 32.214 6.79934C32.0439 10.2758 31.0032 13.5606 28.4941 16.0697L26.2657 18.2981C24.4306 20.1332 23.9089 20.655 24.2941 22.6455C24.6744 24.1661 25.0423 25.6385 23.9367 26.7441C22.5955 28.0853 21.3721 28.0853 20.031 26.7441L9.25587 15.969C7.91473 14.6278 7.91469 13.4045 9.25587 12.0633C10.3615 10.9576 11.8339 11.3257 13.3545 11.7058C15.345 12.0911 15.8668 11.5693 17.7019 9.73424Z" stroke="#1140E7" stroke-width="2.25" stroke-linejoin="round"/>
<path d="M25.4941 10.5H25.5076" stroke="#1140E7" stroke-width="3" stroke-linecap="round" stroke-linejoin="round"/>
<path d="M3.75 32.25L11.25 24.75" stroke="#1140E7" stroke-width="2.25" stroke-linecap="round"/>
<path d="M12.75 32.25L15.75 29.25" stroke="#1140E7" stroke-width="2.25" stroke-linecap="round"/>
<path d="M3.75 23.25L6.75 20.25" stroke="#1140E7" stroke-width="2.25" stroke-linecap="round"/>
</svg>
