<svg width="81" height="48" viewBox="0 0 81 48" fill="none" xmlns="http://www.w3.org/2000/svg">
<path d="M16.3298 10.56V13.95H10.7498V31.5H6.54977V13.95H0.969766V10.56H16.3298ZM30.1942 31.5L25.5742 23.34H23.5942V31.5H19.3942V10.56H27.2542C28.8742 10.56 30.2542 10.85 31.3942 11.43C32.5342 11.99 33.3842 12.76 33.9442 13.74C34.5242 14.7 34.8142 15.78 34.8142 16.98C34.8142 18.36 34.4142 19.61 33.6142 20.73C32.8142 21.83 31.6242 22.59 30.0442 23.01L35.0542 31.5H30.1942ZM23.5942 20.19H27.1042C28.2442 20.19 29.0942 19.92 29.6542 19.38C30.2142 18.82 30.4942 18.05 30.4942 17.07C30.4942 16.11 30.2142 15.37 29.6542 14.85C29.0942 14.31 28.2442 14.04 27.1042 14.04H23.5942V20.19ZM42.813 13.95V19.2H49.863V22.53H42.813V28.08H50.763V31.5H38.613V10.53H50.763V13.95H42.813ZM69.1598 16.86C68.6798 15.98 68.0198 15.31 67.1798 14.85C66.3398 14.39 65.3598 14.16 64.2398 14.16C62.9998 14.16 61.8998 14.44 60.9398 15C59.9798 15.56 59.2298 16.36 58.6898 17.4C58.1498 18.44 57.8798 19.64 57.8798 21C57.8798 22.4 58.1498 23.62 58.6898 24.66C59.2498 25.7 60.0198 26.5 60.9998 27.06C61.9798 27.62 63.1198 27.9 64.4198 27.9C66.0198 27.9 67.3298 27.48 68.3498 26.64C69.3698 25.78 70.0398 24.59 70.3598 23.07H63.1598V19.86H74.4998V23.52C74.2198 24.98 73.6198 26.33 72.6998 27.57C71.7798 28.81 70.5898 29.81 69.1298 30.57C67.6898 31.31 66.0698 31.68 64.2698 31.68C62.2498 31.68 60.4198 31.23 58.7798 30.33C57.1598 29.41 55.8798 28.14 54.9398 26.52C54.0198 24.9 53.5598 23.06 53.5598 21C53.5598 18.94 54.0198 17.1 54.9398 15.48C55.8798 13.84 57.1598 12.57 58.7798 11.67C60.4198 10.75 62.2398 10.29 64.2398 10.29C66.5998 10.29 68.6498 10.87 70.3898 12.03C72.1298 13.17 73.3298 14.78 73.9898 16.86H69.1598Z" fill="#1140E7"/>
<path d="M5.06977 36.53V37.27H3.16977V43.5H2.25977V37.27H0.349766V36.53H5.06977ZM11.1899 40.55C11.1899 40.7233 11.1799 40.9067 11.1599 41.1H6.77992C6.81326 41.64 6.99659 42.0633 7.32992 42.37C7.66992 42.67 8.07992 42.82 8.55992 42.82C8.95326 42.82 9.27992 42.73 9.53992 42.55C9.80659 42.3633 9.99326 42.1167 10.0999 41.81H11.0799C10.9333 42.3367 10.6399 42.7667 10.1999 43.1C9.75992 43.4267 9.21326 43.59 8.55992 43.59C8.03992 43.59 7.57326 43.4733 7.15992 43.24C6.75326 43.0067 6.43326 42.6767 6.19992 42.25C5.96659 41.8167 5.84992 41.3167 5.84992 40.75C5.84992 40.1833 5.96326 39.6867 6.18992 39.26C6.41659 38.8333 6.73326 38.5067 7.13992 38.28C7.55326 38.0467 8.02659 37.93 8.55992 37.93C9.07992 37.93 9.53992 38.0433 9.93992 38.27C10.3399 38.4967 10.6466 38.81 10.8599 39.21C11.0799 39.6033 11.1899 40.05 11.1899 40.55ZM10.2499 40.36C10.2499 40.0133 10.1733 39.7167 10.0199 39.47C9.86659 39.2167 9.65659 39.0267 9.38992 38.9C9.12992 38.7667 8.83992 38.7 8.51992 38.7C8.05992 38.7 7.66659 38.8467 7.33992 39.14C7.01992 39.4333 6.83659 39.84 6.78992 40.36H10.2499ZM15.0611 37.92C15.7278 37.92 16.2678 38.1233 16.6811 38.53C17.0944 38.93 17.3011 39.51 17.3011 40.27V43.5H16.4011V40.4C16.4011 39.8533 16.2644 39.4367 15.9911 39.15C15.7178 38.8567 15.3444 38.71 14.8711 38.71C14.3911 38.71 14.0078 38.86 13.7211 39.16C13.4411 39.46 13.3011 39.8967 13.3011 40.47V43.5H12.3911V38.02H13.3011V38.8C13.4811 38.52 13.7244 38.3033 14.0311 38.15C14.3444 37.9967 14.6878 37.92 15.0611 37.92ZM18.4476 40.74C18.4476 40.18 18.5609 39.69 18.7876 39.27C19.0142 38.8433 19.3242 38.5133 19.7176 38.28C20.1176 38.0467 20.5609 37.93 21.0476 37.93C21.5276 37.93 21.9442 38.0333 22.2976 38.24C22.6509 38.4467 22.9142 38.7067 23.0876 39.02V38.02H24.0076V43.5H23.0876V42.48C22.9076 42.8 22.6376 43.0667 22.2776 43.28C21.9242 43.4867 21.5109 43.59 21.0376 43.59C20.5509 43.59 20.1109 43.47 19.7176 43.23C19.3242 42.99 19.0142 42.6533 18.7876 42.22C18.5609 41.7867 18.4476 41.2933 18.4476 40.74ZM23.0876 40.75C23.0876 40.3367 23.0042 39.9767 22.8376 39.67C22.6709 39.3633 22.4442 39.13 22.1576 38.97C21.8776 38.8033 21.5676 38.72 21.2276 38.72C20.8876 38.72 20.5776 38.8 20.2976 38.96C20.0176 39.12 19.7942 39.3533 19.6276 39.66C19.4609 39.9667 19.3776 40.3267 19.3776 40.74C19.3776 41.16 19.4609 41.5267 19.6276 41.84C19.7942 42.1467 20.0176 42.3833 20.2976 42.55C20.5776 42.71 20.8876 42.79 21.2276 42.79C21.5676 42.79 21.8776 42.71 22.1576 42.55C22.4442 42.3833 22.6709 42.1467 22.8376 41.84C23.0042 41.5267 23.0876 41.1633 23.0876 40.75ZM28.2154 37.92C28.8821 37.92 29.4221 38.1233 29.8354 38.53C30.2487 38.93 30.4554 39.51 30.4554 40.27V43.5H29.5554V40.4C29.5554 39.8533 29.4187 39.4367 29.1454 39.15C28.8721 38.8567 28.4987 38.71 28.0254 38.71C27.5454 38.71 27.1621 38.86 26.8754 39.16C26.5954 39.46 26.4554 39.8967 26.4554 40.47V43.5H25.5454V38.02H26.4554V38.8C26.6354 38.52 26.8787 38.3033 27.1854 38.15C27.4987 37.9967 27.8421 37.92 28.2154 37.92ZM33.0519 38.77V42C33.0519 42.2667 33.1085 42.4567 33.2219 42.57C33.3352 42.6767 33.5319 42.73 33.8119 42.73H34.4819V43.5H33.6619C33.1552 43.5 32.7752 43.3833 32.5219 43.15C32.2685 42.9167 32.1419 42.5333 32.1419 42V38.77H31.4319V38.02H32.1419V36.64H33.0519V38.02H34.4819V38.77H33.0519ZM41.9205 43.5L40.2605 40.65H39.1605V43.5H38.2505V36.53H40.5005C41.0271 36.53 41.4705 36.62 41.8305 36.8C42.1971 36.98 42.4705 37.2233 42.6505 37.53C42.8305 37.8367 42.9205 38.1867 42.9205 38.58C42.9205 39.06 42.7805 39.4833 42.5005 39.85C42.2271 40.2167 41.8138 40.46 41.2605 40.58L43.0105 43.5H41.9205ZM39.1605 39.92H40.5005C40.9938 39.92 41.3638 39.8 41.6105 39.56C41.8571 39.3133 41.9805 38.9867 41.9805 38.58C41.9805 38.1667 41.8571 37.8467 41.6105 37.62C41.3705 37.3933 41.0005 37.28 40.5005 37.28H39.1605V39.92ZM49.3345 40.55C49.3345 40.7233 49.3245 40.9067 49.3045 41.1H44.9245C44.9578 41.64 45.1411 42.0633 45.4745 42.37C45.8145 42.67 46.2245 42.82 46.7045 42.82C47.0978 42.82 47.4245 42.73 47.6845 42.55C47.9511 42.3633 48.1378 42.1167 48.2445 41.81H49.2245C49.0778 42.3367 48.7845 42.7667 48.3445 43.1C47.9045 43.4267 47.3578 43.59 46.7045 43.59C46.1845 43.59 45.7178 43.4733 45.3045 43.24C44.8978 43.0067 44.5778 42.6767 44.3445 42.25C44.1111 41.8167 43.9945 41.3167 43.9945 40.75C43.9945 40.1833 44.1078 39.6867 44.3345 39.26C44.5611 38.8333 44.8778 38.5067 45.2845 38.28C45.6978 38.0467 46.1711 37.93 46.7045 37.93C47.2245 37.93 47.6845 38.0433 48.0845 38.27C48.4845 38.4967 48.7911 38.81 49.0045 39.21C49.2245 39.6033 49.3345 40.05 49.3345 40.55ZM48.3945 40.36C48.3945 40.0133 48.3178 39.7167 48.1645 39.47C48.0111 39.2167 47.8011 39.0267 47.5345 38.9C47.2745 38.7667 46.9845 38.7 46.6645 38.7C46.2045 38.7 45.8111 38.8467 45.4845 39.14C45.1645 39.4333 44.9811 39.84 44.9345 40.36H48.3945ZM52.7956 37.93C53.269 37.93 53.6823 38.0333 54.0356 38.24C54.3956 38.4467 54.6623 38.7067 54.8356 39.02V38.02H55.7556V43.62C55.7556 44.12 55.649 44.5633 55.4356 44.95C55.2223 45.3433 54.9156 45.65 54.5156 45.87C54.1223 46.09 53.6623 46.2 53.1356 46.2C52.4156 46.2 51.8156 46.03 51.3356 45.69C50.8556 45.35 50.5723 44.8867 50.4856 44.3H51.3856C51.4856 44.6333 51.6923 44.9 52.0056 45.1C52.319 45.3067 52.6956 45.41 53.1356 45.41C53.6356 45.41 54.0423 45.2533 54.3556 44.94C54.6756 44.6267 54.8356 44.1867 54.8356 43.62V42.47C54.6556 42.79 54.389 43.0567 54.0356 43.27C53.6823 43.4833 53.269 43.59 52.7956 43.59C52.309 43.59 51.8656 43.47 51.4656 43.23C51.0723 42.99 50.7623 42.6533 50.5356 42.22C50.309 41.7867 50.1956 41.2933 50.1956 40.74C50.1956 40.18 50.309 39.69 50.5356 39.27C50.7623 38.8433 51.0723 38.5133 51.4656 38.28C51.8656 38.0467 52.309 37.93 52.7956 37.93ZM54.8356 40.75C54.8356 40.3367 54.7523 39.9767 54.5856 39.67C54.419 39.3633 54.1923 39.13 53.9056 38.97C53.6256 38.8033 53.3156 38.72 52.9756 38.72C52.6356 38.72 52.3256 38.8 52.0456 38.96C51.7656 39.12 51.5423 39.3533 51.3756 39.66C51.209 39.9667 51.1256 40.3267 51.1256 40.74C51.1256 41.16 51.209 41.5267 51.3756 41.84C51.5423 42.1467 51.7656 42.3833 52.0456 42.55C52.3256 42.71 52.6356 42.79 52.9756 42.79C53.3156 42.79 53.6256 42.71 53.9056 42.55C54.1923 42.3833 54.419 42.1467 54.5856 41.84C54.7523 41.5267 54.8356 41.1633 54.8356 40.75ZM57.7634 37.13C57.5901 37.13 57.4434 37.07 57.3234 36.95C57.2034 36.83 57.1434 36.6833 57.1434 36.51C57.1434 36.3367 57.2034 36.19 57.3234 36.07C57.4434 35.95 57.5901 35.89 57.7634 35.89C57.9301 35.89 58.0701 35.95 58.1834 36.07C58.3034 36.19 58.3634 36.3367 58.3634 36.51C58.3634 36.6833 58.3034 36.83 58.1834 36.95C58.0701 37.07 57.9301 37.13 57.7634 37.13ZM58.2034 38.02V43.5H57.2934V38.02H58.2034ZM61.6944 43.59C61.2744 43.59 60.8977 43.52 60.5644 43.38C60.231 43.2333 59.9677 43.0333 59.7744 42.78C59.581 42.52 59.4744 42.2233 59.4544 41.89H60.3944C60.421 42.1633 60.5477 42.3867 60.7744 42.56C61.0077 42.7333 61.311 42.82 61.6844 42.82C62.031 42.82 62.3044 42.7433 62.5044 42.59C62.7044 42.4367 62.8044 42.2433 62.8044 42.01C62.8044 41.77 62.6977 41.5933 62.4844 41.48C62.271 41.36 61.941 41.2433 61.4944 41.13C61.0877 41.0233 60.7544 40.9167 60.4944 40.81C60.241 40.6967 60.021 40.5333 59.8344 40.32C59.6544 40.1 59.5644 39.8133 59.5644 39.46C59.5644 39.18 59.6477 38.9233 59.8144 38.69C59.981 38.4567 60.2177 38.2733 60.5244 38.14C60.831 38 61.181 37.93 61.5744 37.93C62.181 37.93 62.671 38.0833 63.0444 38.39C63.4177 38.6967 63.6177 39.1167 63.6444 39.65H62.7344C62.7144 39.3633 62.5977 39.1333 62.3844 38.96C62.1777 38.7867 61.8977 38.7 61.5444 38.7C61.2177 38.7 60.9577 38.77 60.7644 38.91C60.571 39.05 60.4744 39.2333 60.4744 39.46C60.4744 39.64 60.531 39.79 60.6444 39.91C60.7644 40.0233 60.911 40.1167 61.0844 40.19C61.2644 40.2567 61.511 40.3333 61.8244 40.42C62.2177 40.5267 62.5377 40.6333 62.7844 40.74C63.031 40.84 63.241 40.9933 63.4144 41.2C63.5944 41.4067 63.6877 41.6767 63.6944 42.01C63.6944 42.31 63.611 42.58 63.4444 42.82C63.2777 43.06 63.041 43.25 62.7344 43.39C62.4344 43.5233 62.0877 43.59 61.6944 43.59ZM66.089 38.77V42C66.089 42.2667 66.1457 42.4567 66.259 42.57C66.3723 42.6767 66.569 42.73 66.849 42.73H67.519V43.5H66.699C66.1923 43.5 65.8123 43.3833 65.559 43.15C65.3057 42.9167 65.179 42.5333 65.179 42V38.77H64.469V38.02H65.179V36.64H66.089V38.02H67.519V38.77H66.089ZM73.6216 40.55C73.6216 40.7233 73.6116 40.9067 73.5916 41.1H69.2116C69.2449 41.64 69.4282 42.0633 69.7616 42.37C70.1016 42.67 70.5116 42.82 70.9916 42.82C71.3849 42.82 71.7116 42.73 71.9716 42.55C72.2382 42.3633 72.4249 42.1167 72.5316 41.81H73.5116C73.3649 42.3367 73.0716 42.7667 72.6316 43.1C72.1916 43.4267 71.6449 43.59 70.9916 43.59C70.4716 43.59 70.0049 43.4733 69.5916 43.24C69.1849 43.0067 68.8649 42.6767 68.6316 42.25C68.3982 41.8167 68.2816 41.3167 68.2816 40.75C68.2816 40.1833 68.3949 39.6867 68.6216 39.26C68.8482 38.8333 69.1649 38.5067 69.5716 38.28C69.9849 38.0467 70.4582 37.93 70.9916 37.93C71.5116 37.93 71.9716 38.0433 72.3716 38.27C72.7716 38.4967 73.0782 38.81 73.2916 39.21C73.5116 39.6033 73.6216 40.05 73.6216 40.55ZM72.6816 40.36C72.6816 40.0133 72.6049 39.7167 72.4516 39.47C72.2982 39.2167 72.0882 39.0267 71.8216 38.9C71.5616 38.7667 71.2716 38.7 70.9516 38.7C70.4916 38.7 70.0982 38.8467 69.7716 39.14C69.4516 39.4333 69.2682 39.84 69.2216 40.36H72.6816ZM75.7327 38.91C75.8927 38.5967 76.1194 38.3533 76.4127 38.18C76.7127 38.0067 77.0761 37.92 77.5027 37.92V38.86H77.2627C76.2427 38.86 75.7327 39.4133 75.7327 40.52V43.5H74.8227V38.02H75.7327V38.91Z" fill="#1140E7"/>
</svg>
