<svg width="131" height="40" viewBox="0 0 131 40" fill="none" xmlns="http://www.w3.org/2000/svg">
<path d="M0 16V10L17.2 0H20L37.6 10L37.2 25.2L32 28.4L37.6 31.2L32.4 34.4L21.6 28.4L32 22V13.2L29.2 11.6L16 19.2V40H14.8L10.8 37.6V16L24 8.4L18.8 5.2L0 16Z" fill="white"/>
<path d="M5.2 19.2L0 22.4V31.6L5.2 34.4V19.2Z" fill="white"/>
<path d="M65.9196 12.56V15.95H60.3396V33.5H56.1396V15.95H50.5596V12.56H65.9196ZM79.7841 33.5L75.1641 25.34H73.1841V33.5H68.9841V12.56H76.8441C78.4641 12.56 79.8441 12.85 80.9841 13.43C82.1241 13.99 82.9741 14.76 83.5341 15.74C84.1141 16.7 84.4041 17.78 84.4041 18.98C84.4041 20.36 84.0041 21.61 83.2041 22.73C82.4041 23.83 81.2141 24.59 79.6341 25.01L84.6441 33.5H79.7841ZM73.1841 22.19H76.6941C77.8341 22.19 78.6841 21.92 79.2441 21.38C79.8041 20.82 80.0841 20.05 80.0841 19.07C80.0841 18.11 79.8041 17.37 79.2441 16.85C78.6841 16.31 77.8341 16.04 76.6941 16.04H73.1841V22.19ZM92.4028 15.95V21.2H99.4528V24.53H92.4028V30.08H100.353V33.5H88.2028V12.53H100.353V15.95H92.4028ZM118.75 18.86C118.27 17.98 117.61 17.31 116.77 16.85C115.93 16.39 114.95 16.16 113.83 16.16C112.59 16.16 111.49 16.44 110.53 17C109.57 17.56 108.82 18.36 108.28 19.4C107.74 20.44 107.47 21.64 107.47 23C107.47 24.4 107.74 25.62 108.28 26.66C108.84 27.7 109.61 28.5 110.59 29.06C111.57 29.62 112.71 29.9 114.01 29.9C115.61 29.9 116.92 29.48 117.94 28.64C118.96 27.78 119.63 26.59 119.95 25.07H112.75V21.86H124.09V25.52C123.81 26.98 123.21 28.33 122.29 29.57C121.37 30.81 120.18 31.81 118.72 32.57C117.28 33.31 115.66 33.68 113.86 33.68C111.84 33.68 110.01 33.23 108.37 32.33C106.75 31.41 105.47 30.14 104.53 28.52C103.61 26.9 103.15 25.06 103.15 23C103.15 20.94 103.61 19.1 104.53 17.48C105.47 15.84 106.75 14.57 108.37 13.67C110.01 12.75 111.83 12.29 113.83 12.29C116.19 12.29 118.24 12.87 119.98 14.03C121.72 15.17 122.92 16.78 123.58 18.86H118.75Z" fill="white"/>
</svg>
